<svg width="79" height="100" viewBox="0 0 79 100" fill="none" xmlns="http://www.w3.org/2000/svg">
<path d="M78.7838 89.5229C78.7838 91.3045 78.2755 92.5384 77.2485 93.2249C76.2346 93.9244 75.26 94.43 74.343 94.7601C74.343 95.9391 74.0417 96.8849 73.4523 97.5713C72.8628 98.2577 72.1502 98.7922 71.3275 99.1485C70.5048 99.5179 69.6141 99.738 68.6683 99.848C67.7094 99.945 66.8736 100 66.1453 100C63.3891 100 60.8688 99.5206 58.6051 98.5617C56.3284 97.6028 54.2037 96.4369 52.2309 95.051C50.6275 93.9401 49.0922 92.7218 47.625 91.404C47.5988 91.5402 47.5831 91.6791 47.57 91.8284C47.4731 92.5961 47.4338 93.3637 47.4888 94.1444C47.5438 94.899 47.6931 95.6535 47.9682 96.3662C48.4608 97.8333 49.4066 99.1223 50.7637 99.8349C48.2407 100.11 45.6234 100.11 43.2786 99.1485C41.6621 98.4909 40.208 97.2831 39.3854 95.7767C38.5627 97.2858 37.1086 98.4909 35.4921 99.1485C33.1473 100.107 30.5169 100.107 27.9939 99.8349C29.351 99.1223 30.2968 97.8333 30.8051 96.3662C31.0802 95.6535 31.2295 94.899 31.2714 94.1444C31.3265 93.3899 31.2976 92.6354 31.2033 91.8835V91.8704C31.1902 91.7184 31.1614 91.5691 31.1352 91.4171C29.668 92.7323 28.1328 93.9401 26.5425 95.051C24.5697 96.4343 22.458 97.6001 20.1813 98.5617C17.9046 99.5206 15.3973 100 12.628 100C11.9023 100 11.0639 99.945 10.1182 99.848C9.15926 99.738 8.26848 99.5179 7.44583 99.1485C6.62317 98.7922 5.92365 98.2577 5.32107 97.5713C4.73159 96.8849 4.44339 95.9391 4.44339 94.7601C3.5107 94.43 2.55181 93.9244 1.52218 93.2249C0.508265 92.5384 0 91.3045 0 89.5229C0 88.0846 0.466348 86.7274 1.42524 85.4777C2.38413 84.2306 4.00324 83.3111 6.30616 82.7085L6.60746 83.0097C6.93757 86.1772 7.85453 88.3701 9.37671 89.6172C10.8858 90.8774 12.7905 91.4957 15.0934 91.4957C17.6557 91.4957 20.1237 90.9612 22.4973 89.8635C24.8683 88.7815 26.98 87.3012 28.8166 85.4358C29.0209 85.2157 29.241 84.9983 29.4322 84.7782C26.2936 73.73 22.7567 62.6922 19.4922 51.6571C16.9981 43.2262 14.5013 34.7822 12.0071 26.3381C11.7739 25.5705 11.5277 24.816 11.3076 24.0483C11.0613 23.1575 10.388 22.3218 9.63609 21.8004C8.11391 20.7315 6.33236 19.8957 4.46697 19.9219C4.2469 19.9219 4.00063 19.9481 3.79627 20.032C3.59192 20.1289 3.42686 20.2782 3.2618 20.4302C3.16487 19.1831 3.52117 18.0303 4.41457 17.1134C5.19531 16.2907 6.58125 15.8794 8.55406 15.8794C10.2675 15.8794 11.7897 16.1807 13.1468 16.7702C14.4908 17.3596 15.5859 18.0854 16.4505 18.9368C17.2994 18.088 18.5753 17.3596 20.2468 16.7702C21.9183 16.1807 23.6186 15.8794 25.3321 15.8794C27.3049 15.8794 28.6908 16.2907 29.4716 17.1134C30.5405 18.2242 30.9099 19.7307 30.4042 21.1978C30.2523 20.4564 29.6497 19.8538 28.9371 19.5525C28.2376 19.2643 27.4437 19.2381 26.6761 19.3324C25.3452 19.5106 24.0431 20.0582 23.0842 20.9909C21.9052 22.1436 21.672 23.485 21.672 25.0622C21.672 25.5155 21.7402 26.063 21.8764 26.6787C21.9995 27.3101 22.2196 28.104 22.5209 29.0497C22.8091 30.0086 23.1523 31.1876 23.5479 32.5998C23.9461 34.025 24.4387 35.7122 25.0282 37.685L34.8424 72.6139L35.1437 73.6697C35.1568 73.5047 35.1699 73.3396 35.1856 73.1772C35.5969 66.926 34.9524 60.6487 34.9524 54.3818V12.7905C35.0075 11.3364 35.1725 9.70683 34.9262 8.23967C34.8843 7.95148 34.8162 7.66329 34.735 7.39082C34.4468 6.43193 33.9123 5.58045 32.9534 4.96476C31.8557 4.25214 30.5536 3.96395 29.2515 3.7858C28.7851 3.73078 28.2926 3.67576 27.8262 3.7727C27.2918 3.88274 26.9066 4.21023 26.5923 4.59536C26.5503 4.59536 26.5241 4.60845 26.4953 4.62155C26.291 3.55262 26.3434 2.63303 26.8935 1.78417C26.9617 1.68723 27.0167 1.59292 27.0979 1.50908C27.1791 1.41214 27.263 1.33093 27.3573 1.23399C27.4516 1.13705 27.5485 1.04274 27.6586 0.945806H27.6717C28.0149 0.670713 28.4524 0.466353 28.9607 0.301298C29.6471 0.110043 30.4828 0 31.4706 0C32.7596 0 33.9385 0.165057 35.0206 0.492547C35.1987 0.547566 35.3769 0.602582 35.5419 0.670701C35.7201 0.738819 35.8851 0.822663 36.0633 0.890781C36.2414 0.9589 36.4065 1.04274 36.5558 1.12396C36.7209 1.19208 36.8702 1.27592 37.0353 1.35714H37.0484C37.9523 1.8654 38.7356 2.42606 39.3644 3.05747L39.3775 3.04435L39.3906 3.05747C39.5949 2.85311 39.815 2.64613 40.0613 2.44177C40.3076 2.26362 40.5696 2.07237 40.842 1.8785H40.8551C41.4027 1.52219 42.0079 1.19207 42.6786 0.890781H42.6917C43.0349 0.738826 43.3781 0.602584 43.7475 0.492547C44.8165 0.162437 45.9954 0 47.2582 0C48.246 0 49.0817 0.110043 49.7812 0.301298C49.9463 0.356316 50.1113 0.411333 50.2738 0.479451C50.4938 0.576388 50.7113 0.699524 50.9052 0.822661H50.9183C51.0964 0.958897 51.2615 1.08204 51.4108 1.23399C51.5078 1.33093 51.589 1.41214 51.6702 1.50908C51.7671 1.63222 51.8614 1.74225 51.9296 1.86539C52.4221 2.68804 52.4509 3.59192 52.2728 4.62155C52.2466 4.60845 52.2046 4.59536 52.1758 4.59536C51.8614 4.21285 51.4763 3.88274 50.9419 3.7727C50.4624 3.67576 49.983 3.73078 49.5035 3.7858C48.2145 3.96395 46.8993 4.25214 45.8016 4.96476C44.8427 5.58045 44.3082 6.43192 44.02 7.40392C43.9781 7.50085 43.9519 7.59518 43.9388 7.69212C43.9126 7.80215 43.8838 7.92529 43.8707 8.03533C43.7895 8.47285 43.7475 8.9392 43.7344 9.40554C43.7213 9.52868 43.7213 9.66492 43.7213 9.78806C43.6951 10.2963 43.7213 10.8151 43.7475 11.3364C43.7606 11.829 43.7895 12.3241 43.8026 12.7905V54.3818C43.8026 60.6461 43.1711 66.926 43.5694 73.1772C43.5825 73.3422 43.5956 73.4916 43.6113 73.6566L43.9126 72.6008L53.7137 37.685C54.3032 35.7122 54.7958 34.025 55.194 32.5998C55.5922 31.1876 55.9354 30.0086 56.2367 29.0497C56.5249 28.104 56.745 27.3075 56.8812 26.6787C57.0044 26.063 57.0725 25.5129 57.0725 25.0622C57.0725 23.485 56.8393 22.141 55.6603 20.9909C54.7015 20.0582 53.3993 19.5106 52.0684 19.3324C51.3139 19.2355 50.52 19.2643 49.8074 19.5525C49.1079 19.8538 48.5053 20.4564 48.3403 21.1978C47.832 19.7307 48.204 18.2242 49.273 17.1134C50.0668 16.2907 51.4527 15.8794 53.4255 15.8794C55.1259 15.8794 56.8262 16.1807 58.4977 16.7702C60.1849 17.3596 61.4451 18.0854 62.3097 18.9368C63.1586 18.088 64.2563 17.3596 65.6134 16.7702C66.9575 16.1807 68.4927 15.8794 70.2062 15.8794C72.179 15.8794 73.5518 16.2907 74.3457 17.1134C75.2233 18.033 75.5927 19.1831 75.4984 20.4302C75.3334 20.2782 75.1552 20.1289 74.9509 20.032C74.7465 19.9507 74.5133 19.9219 74.2802 19.9219C72.4148 19.8957 70.6463 20.7315 69.111 21.8004C68.3696 22.3218 67.6989 23.1575 67.4395 24.0483C67.2195 24.816 66.9732 25.5705 66.7531 26.3381C64.2589 34.7822 61.7621 43.2262 59.268 51.6571C56.0062 62.6922 52.4535 73.7143 49.3149 84.7494C49.5192 84.9826 49.7393 85.2157 49.9594 85.4358C51.796 87.3012 53.9076 88.7815 56.2655 89.8635C58.6366 90.9612 61.1046 91.4957 63.6695 91.4957C65.9724 91.4957 67.8771 90.88 69.3992 89.6172C70.9083 88.3701 71.8253 86.1772 72.1685 83.0097L72.4567 82.7085C74.7596 83.3111 76.3918 84.2306 77.3507 85.4777C78.2965 86.7248 78.776 88.082 78.776 89.5229H78.7838Z" fill="#F6F7F5"/>
</svg>
